<?xml version="1.0" encoding="UTF-8"?>
<svg version="1.1" xmlns="http://www.w3.org/2000/svg" width="239" height="214">
<path d="M0 0 C10.23 0 20.46 0 31 0 C33.19696511 5.12625193 34.48557365 8.91045977 35.625 14.1875 C36.9148432 19.0492265 36.9148432 19.0492265 40.01171875 22.828125 C44.95304067 25.21069788 48.62283011 25.217906 54 24 C57.17083504 22.47561773 60.0727875 20.54093779 63.01367188 18.61914062 C64.79296875 17.51953125 64.79296875 17.51953125 68 16 C73.60661291 17.88651082 77.71690517 23.26505323 81.8125 27.3125 C83.15731445 28.59543945 83.15731445 28.59543945 84.52929688 29.90429688 C85.37169922 30.73638672 86.21410156 31.56847656 87.08203125 32.42578125 C87.85780518 33.18286377 88.6335791 33.93994629 89.43286133 34.7199707 C91 37 91 37 90.86694336 39.57226562 C89.87345626 42.35436523 88.45419846 44.75391924 86.91308594 47.26635742 C83.19447094 53.26695695 83.19447094 53.26695695 82 60.0625 C83.33106971 64.72124397 85.16190588 67.96696952 89 71 C91.83389299 72.14295736 94.7325824 72.92104514 97.6875 73.6875 C105.91047297 75.91047297 105.91047297 75.91047297 107 77 C107.08790975 79.29151417 107.10694038 81.58572524 107.09765625 83.87890625 C107.09553383 84.90889992 107.09553383 84.90889992 107.09336853 85.95970154 C107.08775479 88.16067801 107.07520007 90.36155409 107.0625 92.5625 C107.05748676 94.05143083 107.05292355 95.54036324 107.04882812 97.02929688 C107.03778093 100.68623075 107.02050713 104.34310558 107 108 C103.17005132 109.97496706 99.95227455 111.39592674 95.6875 112.0625 C93.1491177 112.41933162 93.1491177 112.41933162 91 113 C90.67 113.66 90.34 114.32 90 115 C88.35 115 86.7 115 85 115 C84.86722656 115.61488281 84.73445312 116.22976562 84.59765625 116.86328125 C84.42105469 117.67152344 84.24445313 118.47976562 84.0625 119.3125 C83.88847656 120.11300781 83.71445313 120.91351563 83.53515625 121.73828125 C83 124 83 124 82 127 C83.0194271 129.43026747 84.08378383 131.68041202 85.3125 134 C85.79493164 134.94359375 85.79493164 134.94359375 86.28710938 135.90625 C87.7357577 138.71430753 89.24572878 141.36859317 91 144 C90.81415613 148.64039308 88.76409228 150.70796035 85.52734375 153.86328125 C84.62822266 154.74951172 83.72910156 155.63574219 82.80273438 156.54882812 C81.38444336 157.9168457 81.38444336 157.9168457 79.9375 159.3125 C78.97760179 160.25232276 78.01860671 161.19306889 77.06054688 162.13476562 C74.71576088 164.43242024 72.36215473 166.7202276 70 169 C64.19040104 167.15738819 59.42297662 164.412943 54.21875 161.265625 C51.09459221 159.69925979 51.09459221 159.69925979 48.03125 160.609375 C47.0309375 161.06828125 46.030625 161.5271875 45 162 C43.18628906 162.47566406 43.18628906 162.47566406 41.3359375 162.9609375 C36.97192156 165.62840392 36.55450524 167.87706226 35.30078125 172.6796875 C34.96626953 174.13761719 34.96626953 174.13761719 34.625 175.625 C34.13991893 177.55516551 33.65303814 179.48487993 33.1640625 181.4140625 C32.96248535 182.2695166 32.7609082 183.1249707 32.55322266 184.00634766 C32 186 32 186 31 187 C28.70848583 187.08790975 26.41427476 187.10694038 24.12109375 187.09765625 C23.09110008 187.09553383 23.09110008 187.09553383 22.04029846 187.09336853 C19.83932199 187.08775479 17.63844591 187.07520007 15.4375 187.0625 C13.94856917 187.05748676 12.45963676 187.05292355 10.97070312 187.04882812 C7.31376925 187.03778093 3.65689442 187.02050713 0 187 C-2.00055933 181.9345169 -3.43068818 177.15157042 -4.5625 171.8125 C-5.63843659 167.92578332 -6.27160417 165.64691426 -9.3046875 162.953125 C-12.73979104 161.13873796 -15.41148579 159.90468915 -19.34375 160.140625 C-23.74792567 161.56550536 -27.59985932 164.01528743 -31.56054688 166.38085938 C-33.50390625 167.48046875 -33.50390625 167.48046875 -37 169 C-40.42142311 167.84692136 -42.55108206 165.67081581 -45.0390625 163.12109375 C-45.78414062 162.36505859 -46.52921875 161.60902344 -47.296875 160.83007812 C-48.06515625 160.04052734 -48.8334375 159.25097656 -49.625 158.4375 C-51.15663169 156.87152109 -52.69038195 155.30761061 -54.2265625 153.74609375 C-54.90283691 153.05185303 -55.57911133 152.3576123 -56.27587891 151.64233398 C-57.91488551 149.92043505 -57.91488551 149.92043505 -60 149 C-59.40053717 142.22607005 -56.87366233 137.90466545 -53.3984375 132.18359375 C-51.77335324 128.48403043 -51.89382886 126.83152033 -53 123 C-53.96887581 120.98473831 -54.9641321 118.98166034 -56 117 C-56 116.34 -56 115.68 -56 115 C-57.08539063 114.73445313 -58.17078125 114.46890625 -59.2890625 114.1953125 C-60.73440647 113.83866918 -62.17971722 113.4818912 -63.625 113.125 C-64.69427734 112.86396484 -64.69427734 112.86396484 -65.78515625 112.59765625 C-74.58893624 110.41690341 -74.58893624 110.41690341 -78 109 C-79.17666109 105.47001672 -79.02013769 102.86362584 -78.87890625 99.14453125 C-78.85529526 98.48289474 -78.83168427 97.82125824 -78.80735779 97.13957214 C-78.73090143 95.03031998 -78.64680043 92.9214518 -78.5625 90.8125 C-78.5092612 89.38087804 -78.45652093 87.94923746 -78.40429688 86.51757812 C-78.27531118 83.01148424 -78.13946876 79.50569429 -78 76 C-77.39526855 75.87584717 -76.79053711 75.75169434 -76.16748047 75.6237793 C-64.2794404 73.40787797 -64.2794404 73.40787797 -54.19921875 67.36328125 C-51.86249348 63.27540625 -50.60762566 60.73146583 -51.671875 56.03515625 C-53.56686567 51.70454522 -56.08730357 47.8720744 -58.63671875 43.90234375 C-60.24634691 40.47554224 -60.16524624 39.53390037 -59 36 C-57.05053711 33.59643555 -57.05053711 33.59643555 -54.52734375 31.13671875 C-53.17866211 29.80737305 -53.17866211 29.80737305 -51.80273438 28.45117188 C-50.85720703 27.53916016 -49.91167969 26.62714844 -48.9375 25.6875 C-47.97760179 24.74767724 -47.01860671 23.80693111 -46.06054688 22.86523438 C-43.71576088 20.56757976 -41.36215473 18.2797724 -39 16 C-34.86018428 17.28853754 -31.61381415 18.80757655 -28.0012207 21.22460938 C-22.45594234 24.99628942 -22.45594234 24.99628942 -15.97265625 25.6328125 C-13.50908683 24.58371539 -11.30987977 23.34326996 -9 22 C-8.01 22 -7.02 22 -6 22 C-5.90203125 21.41734375 -5.8040625 20.8346875 -5.703125 20.234375 C-4.39527215 13.06373349 -2.36441669 7.09325007 0 0 Z M-27.453125 55.69140625 C-38.49446387 69.41995839 -41.29930388 84.83290323 -40 102 C-37.2430289 117.13970988 -29.21475621 129.64345325 -16.9375 138.6875 C-3.66271928 147.71481049 11.35568513 150.82224875 27.125 148 C41.98376365 144.23037054 54.43829846 136.31234979 62.9375 123.4375 C71.56454494 108.72199033 74.15716511 94.67885296 69.83203125 78.03564453 C65.45370663 62.45806509 56.63227416 50.72534212 42.47265625 42.66015625 C18.59141056 31.24336275 -9.50121568 35.99576051 -27.453125 55.69140625 Z " fill="#B907AA" transform="translate(105,17)"/>
<path d="M0 0 C3.62808272 0.52217389 4.91947682 1.9820155 7.50488281 4.54931641 C8.82746094 5.86222656 8.82746094 5.86222656 10.17675781 7.20166016 C11.08425781 8.12849609 11.99175781 9.05533203 12.92675781 10.01025391 C13.84972656 10.91388672 14.77269531 11.81751953 15.72363281 12.74853516 C16.60019531 13.63154297 17.47675781 14.51455078 18.37988281 15.42431641 C19.58112793 16.634021 19.58112793 16.634021 20.80664062 17.86816406 C23.05654779 20.89643337 23.74194064 22.60556374 23.67675781 26.38525391 C21.85009766 29.10180664 21.85009766 29.10180664 19.13769531 31.81884766 C18.42089096 32.54214012 18.42089096 32.54214012 17.68960571 33.28004456 C16.67736914 34.29266183 15.65638693 35.29660199 14.62744141 36.29223633 C13.0546358 37.81995841 11.51953368 39.37940035 9.98535156 40.94580078 C8.9965307 41.92640266 8.00570839 42.90499129 7.01269531 43.88134766 C6.11083496 44.77007568 5.20897461 45.65880371 4.27978516 46.57446289 C1.67675781 48.38525391 1.67675781 48.38525391 -1.09423828 48.22924805 C-3.32324219 47.38525391 -3.32324219 47.38525391 -4.32324219 46.38525391 C-4.32934065 41.54917151 -3.50437823 39.16757223 -0.16308594 35.63916016 C1.12265333 34.3929821 2.42399595 33.16273187 3.73925781 31.94775391 C4.40248047 31.31160156 5.06570312 30.67544922 5.74902344 30.02001953 C7.37881594 28.46057778 9.02089349 26.91690451 10.67675781 25.38525391 C9.02121197 19.46943677 4.58775195 16.1911895 0.20019531 12.20166016 C-4.20291545 8.02460196 -4.20291545 8.02460196 -4.84667969 4.60400391 C-4.11184328 1.48917495 -3.1655091 0.52492364 0 0 Z " fill="#B814AA" transform="translate(141.3232421875,86.61474609375)"/>
<path d="M0 0 C1 1 1 1 1.49609375 3.12109375 C0.70281544 7.72460646 -2.58864787 9.9935325 -5.9375 13.0625 C-7.24496443 14.27538734 -8.54604297 15.49520422 -9.83984375 16.72265625 C-10.42113037 17.25640869 -11.00241699 17.79016113 -11.60131836 18.34008789 C-13.24754711 20.29378125 -13.86825172 21.43991971 -14 24 C-12.74958155 25.84453512 -12.74958155 25.84453512 -10.81640625 27.4609375 C-10.13642578 28.09773438 -9.45644531 28.73453125 -8.75585938 29.390625 C-7.29965268 30.70808359 -5.84133318 32.02321082 -4.38085938 33.3359375 C0.86848286 38.2624725 0.86848286 38.2624725 1.59765625 42.3515625 C1 45 1 45 -1 47 C-5.55840564 46.79114493 -7.67457926 44.83900381 -10.828125 41.703125 C-12.15070313 40.38828125 -12.15070313 40.38828125 -13.5 39.046875 C-14.4075 38.12390625 -15.315 37.2009375 -16.25 36.25 C-17.17296875 35.3425 -18.0959375 34.435 -19.046875 33.5 C-19.9234375 32.61828125 -20.8 31.7365625 -21.703125 30.828125 C-22.50395508 30.0227832 -23.30478516 29.21744141 -24.12988281 28.38769531 C-26.1497853 25.80875976 -26.74089088 24.23750735 -27 21 C-25.89105337 17.73342895 -24.13703408 16.02569583 -21.5 13.875 C-17.10617033 10.17323874 -13.1121562 6.14898979 -9.1015625 2.0390625 C-5.77062705 -1.19281167 -4.39445392 -1.12678306 0 0 Z " fill="#B712AA" transform="translate(100,88)"/>
<path d="M0 0 C0.5775 0.226875 1.155 0.45375 1.75 0.6875 C2.97368283 6.49233346 2.36326268 10.65841104 0.765625 16.32421875 C0.54936462 17.12608109 0.33310425 17.92794342 0.11029053 18.75410461 C-0.34741409 20.43915825 -0.81170443 22.12243547 -1.28222656 23.80395508 C-1.9995558 26.3734089 -2.69263789 28.94852604 -3.3828125 31.52539062 C-3.83191253 33.16705601 -4.28238662 34.80834625 -4.734375 36.44921875 C-4.94076599 37.21594406 -5.14715698 37.98266937 -5.35980225 38.77262878 C-6.4390998 42.5854461 -7.39567692 45.85208888 -10.25 48.6875 C-12.9375 48.9375 -12.9375 48.9375 -15.25 48.6875 C-17.98492713 43.21764575 -15.71053899 36.59955054 -14.203125 31.015625 C-13.99065125 30.21139099 -13.77817749 29.40715698 -13.55926514 28.57855225 C-13.10979778 26.88985969 -12.65572056 25.20238802 -12.19726562 23.51611328 C-11.49948814 20.93560704 -10.82730069 18.34928627 -10.15625 15.76171875 C-9.71508146 14.11677376 -9.27242437 12.47222712 -8.828125 10.828125 C-8.63003235 10.0562384 -8.4319397 9.28435181 -8.22784424 8.48907471 C-7.33606757 5.2863161 -6.60150119 3.0403603 -4.22949219 0.65917969 C-2.25 -0.3125 -2.25 -0.3125 0 0 Z " fill="#B412A6" transform="translate(125.25,86.3125)"/>
<path d="M0 0 C0.70211894 1.65204456 1.36971413 3.31923769 2 5 C2.66 5.33 3.32 5.66 4 6 C3.95875 7.0725 3.9175 8.145 3.875 9.25 C3.9885825 12.65747485 4.21273364 14.20739631 6 17 C5.34 17.33 4.68 17.66 4 18 C4.66 20.31 5.32 22.62 6 25 C6.33 25 6.66 25 7 25 C7 28.63 7 32.26 7 36 C7.66 36 8.32 36 9 36 C9.77916092 41.02125926 10.13016601 44.97703996 9 50 C8.34 50 7.68 50 7 50 C7 53.3 7 56.6 7 60 C6.34 60 5.68 60 5 60 C5.0721875 59.32195312 5.144375 58.64390625 5.21875 57.9453125 C5.51589275 54.96563107 5.76682923 51.9853504 6 49 C6.06832031 48.20980469 6.13664062 47.41960937 6.20703125 46.60546875 C6.89135734 31.72771269 0.91800538 16.22677526 -8.875 5.25 C-10.23687203 3.82070856 -11.60710995 2.39908068 -13 1 C-10.50935112 0.31292445 -8.62113708 0 -6 0 C-3 -1 -3 -1 0 0 Z " fill="#BB0BAD" transform="translate(170,66)"/>
<path d="M0 0 C10.23 0 20.46 0 31 0 C31.495 1.98 31.495 1.98 32 4 C31.38479492 3.94352295 30.76958984 3.8870459 30.13574219 3.82885742 C27.34207339 3.58779679 24.54691116 3.38727937 21.75 3.1875 C20.78191406 3.09791016 19.81382813 3.00832031 18.81640625 2.91601562 C13.0708829 2.40073824 13.0708829 2.40073824 8.34375 5.3125 C6.91365502 8.17268997 6.63997089 9.84974526 7 13 C5.329375 13.4640625 5.329375 13.4640625 3.625 13.9375 C0.2054845 14.82326483 0.2054845 14.82326483 -2 16 C-2.66 14.68 -3.32 13.36 -4 12 C-2.68 8.04 -1.36 4.08 0 0 Z " fill="#BF0DAC" transform="translate(105,17)"/>
<path d="M0 0 C1 3 1 3 -0.375 6 C-5.1709487 11.48108423 -12.01214948 12.25661165 -19 13 C-18.95875 13.9075 -18.9175 14.815 -18.875 15.75 C-19 19 -19 19 -20 20.875 C-21.22905052 23.48673235 -21.20054197 25.37940509 -21.125 28.25 C-21.10695313 29.14203125 -21.08890625 30.0340625 -21.0703125 30.953125 C-21.04710937 31.62859375 -21.02390625 32.3040625 -21 33 C-20.34 33 -19.68 33 -19 33 C-19 34.32 -19 35.64 -19 37 C-19.639375 37.185625 -20.27875 37.37125 -20.9375 37.5625 C-23.42126213 38.94246056 -23.42126213 38.94246056 -23.75 42.625 C-23.8325 43.73875 -23.915 44.8525 -24 46 C-26.48363727 42.27454409 -26.16338803 40.57229631 -25.9765625 36.14453125 C-25.95153656 35.48289474 -25.92651062 34.82125824 -25.90072632 34.13957214 C-25.81866907 32.03001566 -25.7220279 29.92141575 -25.625 27.8125 C-25.5667456 26.38089823 -25.50944263 24.9492574 -25.453125 23.51757812 C-25.31311345 20.01119864 -25.16001787 16.50552988 -25 13 C-24.38479492 12.8548999 -23.76958984 12.7097998 -23.13574219 12.56030273 C-20.33254565 11.88170923 -17.54212697 11.16023273 -14.75 10.4375 C-13.78191406 10.20998047 -12.81382813 9.98246094 -11.81640625 9.74804688 C-6.57256106 8.46100918 -6.57256106 8.46100918 -2.43554688 5.22314453 C-1.17455031 3.1172852 -1.17455031 3.1172852 0 0 Z " fill="#AF1CA2" transform="translate(52,80)"/>
<path d="M0 0 C5.1227497 0.42318367 7.35583023 1.73466986 10.875 5.4375 C11.65617188 6.24058594 12.43734375 7.04367188 13.2421875 7.87109375 C15 10 15 10 15 12 C16.32 12.66 17.64 13.32 19 14 C19 14.99 19 15.98 19 17 C18.34 17 17.68 17 17 17 C17 17.66 17 18.32 17 19 C13.58596704 19.41841612 12.3338275 19.25315694 9.54296875 17.13671875 C8.76566406 16.32847656 7.98835937 15.52023438 7.1875 14.6875 C6.39730469 13.88699219 5.60710937 13.08648437 4.79296875 12.26171875 C3 10 3 10 3 7 C2.67 6.67 2.34 6.34 2 6 C1 5 0 4 -1 3 C-0.67 2.01 -0.34 1.02 0 0 Z " fill="#B80AAA" transform="translate(139,89)"/>
<path d="M0 0 C0.33 0.66 0.66 1.32 1 2 C1.66 2.33 2.32 2.66 3 3 C2.01 3.33 1.02 3.66 0 4 C1.3089572 7.12197478 1.3089572 7.12197478 4 9 C4 9.66 4 10.32 4 11 C5.65 10.67 7.3 10.34 9 10 C9.66 11.98 10.32 13.96 11 16 C11.88751953 16.03867188 11.88751953 16.03867188 12.79296875 16.078125 C18.11042263 16.45980195 21.0339481 17.15788722 25 21 C25.33 21 25.66 21 26 21 C26.125 23.875 26.125 23.875 26 27 C25.34 27.66 24.68 28.32 24 29 C19.44159436 28.79114493 17.32542074 26.83900381 14.171875 23.703125 C13.29015625 22.8265625 12.4084375 21.95 11.5 21.046875 C10.5925 20.12390625 9.685 19.2009375 8.75 18.25 C7.82703125 17.3425 6.9040625 16.435 5.953125 15.5 C5.0765625 14.61828125 4.2 13.7365625 3.296875 12.828125 C2.49604492 12.0227832 1.69521484 11.21744141 0.87011719 10.38769531 C-1.16319667 7.79163663 -1.85363627 6.28042751 -2 3 C-1.34 2.01 -0.68 1.02 0 0 Z " fill="#B90EAF" transform="translate(75,106)"/>
<path d="M0 0 C0.66 0 1.32 0 2 0 C5.00252493 5.62973425 4.61923966 11.96572565 3.375 18.0625 C2 20 2 20 -1.125 20.8125 C-2.07375 20.874375 -3.0225 20.93625 -4 21 C-4.33498301 23.33165034 -4.33498301 23.33165034 -4 26 C-1.8647909 28.5769765 0.20570212 30.13713474 3 32 C4.20436775 33.46477159 5.40736012 34.93078594 6.59375 36.41015625 C8.05346406 38.06044409 9.58953733 39.38056976 11.3125 40.75 C12.199375 41.4925 13.08625 42.235 14 43 C14 43.66 14 44.32 14 45 C15.32 45.33 16.64 45.66 18 46 C16.27978516 46.75146484 16.27978516 46.75146484 14 47 C11.83349609 45.38525391 11.83349609 45.38525391 9.5234375 42.9765625 C8.688125 42.120625 7.8528125 41.2646875 6.9921875 40.3828125 C6.12851562 39.47273438 5.26484375 38.56265625 4.375 37.625 C2.65555443 35.84450903 0.93429131 34.06577092 -0.7890625 32.2890625 C-1.54912598 31.49193848 -2.30918945 30.69481445 -3.09228516 29.87353516 C-4.8672993 27.9381671 -4.8672993 27.9381671 -7 27 C-6.40271724 20.24217226 -3.89239909 15.97102144 -0.3984375 10.28125 C1.27380687 6.35754813 0.94216581 4.09997429 0 0 Z " fill="#AF24A5" transform="translate(52,139)"/>
<path d="M0 0 C3.62808272 0.52217389 4.91947682 1.9820155 7.50488281 4.54931641 C8.82746094 5.86222656 8.82746094 5.86222656 10.17675781 7.20166016 C11.08425781 8.12849609 11.99175781 9.05533203 12.92675781 10.01025391 C13.84972656 10.91388672 14.77269531 11.81751953 15.72363281 12.74853516 C16.60019531 13.63154297 17.47675781 14.51455078 18.37988281 15.42431641 C19.58112793 16.634021 19.58112793 16.634021 20.80664062 17.86816406 C22.97872639 20.79168942 23.49421407 22.77082498 23.67675781 26.38525391 C22.24316406 28.28369141 22.24316406 28.28369141 20.23925781 29.76025391 C19.25119141 30.51435547 19.25119141 30.51435547 18.24316406 31.28369141 C17.72625 31.64720703 17.20933594 32.01072266 16.67675781 32.38525391 C16.67675781 31.72525391 16.67675781 31.06525391 16.67675781 30.38525391 C16.01675781 29.72525391 15.35675781 29.06525391 14.67675781 28.38525391 C16.65675781 27.72525391 18.63675781 27.06525391 20.67675781 26.38525391 C20.34675781 25.39525391 20.01675781 24.40525391 19.67675781 23.38525391 C17.36675781 24.04525391 15.05675781 24.70525391 12.67675781 25.38525391 C12.67675781 24.72525391 12.67675781 24.06525391 12.67675781 23.38525391 C12.01675781 23.38525391 11.35675781 23.38525391 10.67675781 23.38525391 C10.67675781 22.72525391 10.67675781 22.06525391 10.67675781 21.38525391 C11.99675781 21.38525391 13.31675781 21.38525391 14.67675781 21.38525391 C14.67675781 20.72525391 14.67675781 20.06525391 14.67675781 19.38525391 C15.33675781 18.72525391 15.99675781 18.06525391 16.67675781 17.38525391 C15.55370622 16.26220231 14.42888474 15.14089178 13.29785156 14.02587891 C12.09763333 12.81120021 10.9274374 11.56669444 9.77441406 10.30712891 C5.65215142 5.80987017 5.65215142 5.80987017 0.17675781 3.38525391 C-0.64824219 3.38525391 -1.47324219 3.38525391 -2.32324219 3.38525391 C-2.32324219 4.70525391 -2.32324219 6.02525391 -2.32324219 7.38525391 C-0.67324219 7.38525391 0.97675781 7.38525391 2.67675781 7.38525391 C2.67675781 8.04525391 2.67675781 8.70525391 2.67675781 9.38525391 C2.01675781 9.38525391 1.35675781 9.38525391 0.67675781 9.38525391 C0.34675781 10.04525391 0.01675781 10.70525391 -0.32324219 11.38525391 C-4.22171934 8.0959138 -4.22171934 8.0959138 -4.69824219 4.76025391 C-4.18295319 1.49675694 -3.2650512 0.54143031 0 0 Z " fill="#AD159C" transform="translate(141.3232421875,86.61474609375)"/>
<path d="M0 0 C0.66 0.33 1.32 0.66 2 1 C2.625 4.0625 2.625 4.0625 3 7 C2.38125 7.391875 1.7625 7.78375 1.125 8.1875 C-1.14879158 9.83204677 -1.14879158 9.83204677 -1.875 12.3125 C-3.41141946 15.98283538 -5.88798023 18.53913654 -9 21 C-9.66 21 -10.32 21 -11 21 C-11 20.34 -11 19.68 -11 19 C-11.99 18.67 -12.98 18.34 -14 18 C-13.52492969 13.72436721 -11.04697466 11.83439503 -8 9 C-7.01 7.88625 -7.01 7.88625 -6 6.75 C-3.66947084 4.71078699 -2.04001379 4.33777931 1 4 C0.67 2.68 0.34 1.36 0 0 Z " fill="#B10AA4" transform="translate(160,106)"/>
<path d="M0 0 C1.28276271 2.56552542 0.80751089 3.37837115 0.0390625 6.09765625 C-0.29738281 7.29938477 -0.29738281 7.29938477 -0.640625 8.52539062 C-0.88296875 9.36263672 -1.1253125 10.19988281 -1.375 11.0625 C-1.60960937 11.90361328 -1.84421875 12.74472656 -2.0859375 13.61132812 C-3.85766135 19.85766135 -3.85766135 19.85766135 -5 21 C-7.29151417 21.08790975 -9.58572524 21.10694038 -11.87890625 21.09765625 C-12.90889992 21.09553383 -12.90889992 21.09553383 -13.95970154 21.09336853 C-16.16067801 21.08775479 -18.36155409 21.07520007 -20.5625 21.0625 C-22.05143083 21.05748676 -23.54036324 21.05292355 -25.02929688 21.04882812 C-28.68623075 21.03778093 -32.34310558 21.02050713 -36 21 C-36.33 20.34 -36.66 19.68 -37 19 C-26.77 19 -16.54 19 -6 19 C-6 17.02 -6 15.04 -6 13 C-6.66 12.67 -7.32 12.34 -8 12 C-7.34 12 -6.68 12 -6 12 C-5.67 10.35 -5.34 8.7 -5 7 C-4.34 7 -3.68 7 -3 7 C-2.814375 5.5459375 -2.814375 5.5459375 -2.625 4.0625 C-2.41875 3.051875 -2.2125 2.04125 -2 1 C-1.34 0.67 -0.68 0.34 0 0 Z " fill="#B427A8" transform="translate(141,183)"/>
<path d="M0 0 C3.76607955 1.25535985 4.26441793 2.52883585 6 6 C6 6.99 6 7.98 6 9 C6.99 9.33 7.98 9.66 9 10 C9.33 11.65 9.66 13.3 10 15 C10.33 15 10.66 15 11 15 C11 18.63 11 22.26 11 26 C11.66 26 12.32 26 13 26 C13.77916092 31.02125926 14.13016601 34.97703996 13 40 C12.34 40 11.68 40 11 40 C11 43.3 11 46.6 11 50 C10.34 50 9.68 50 9 50 C9.0721875 49.32195312 9.144375 48.64390625 9.21875 47.9453125 C9.51589275 44.96563107 9.76682923 41.9853504 10 39 C10.06832031 38.20980469 10.13664063 37.41960937 10.20703125 36.60546875 C10.80121443 23.68748618 5.7921902 11.27546358 0 0 Z " fill="#A6189B" transform="translate(166,76)"/>
<path d="M0 0 C-4.75 4.875 -4.75 4.875 -7 6 C-8.13350534 8.01669827 -8.13350534 8.01669827 -9 10 C-10.65 10 -12.3 10 -14 10 C-14 8.68 -14 7.36 -14 6 C-13.34 5.67 -12.68 5.34 -12 5 C-13.19238281 5.16757813 -14.38476562 5.33515625 -15.61328125 5.5078125 C-17.17960685 5.71415479 -18.74601775 5.91985034 -20.3125 6.125 C-21.09818359 6.23714844 -21.88386719 6.34929687 -22.69335938 6.46484375 C-23.45068359 6.56152344 -24.20800781 6.65820312 -24.98828125 6.7578125 C-25.68477783 6.8520752 -26.38127441 6.94633789 -27.09887695 7.04345703 C-29 7 -29 7 -32 5 C-30.44152344 4.83564453 -30.44152344 4.83564453 -28.8515625 4.66796875 C-21.66503233 3.86563105 -14.94677183 2.91179492 -8.0625 0.59765625 C-5.33653117 -0.19225517 -2.81591818 -0.22230933 0 0 Z " fill="#B920B0" transform="translate(148,161)"/>
<path d="M0 0 C0.66 0 1.32 0 2 0 C0.94219504 3.61416695 -0.1074985 6.15107898 -2.3125 9.25 C-3.74705686 11.64448339 -4.03060701 12.71300384 -3.73046875 15.52734375 C-2.39318758 20.3973356 -1.08708782 23.84239506 3 27 C5.85520709 28.16238362 8.7720112 28.96475917 11.75 29.75 C12.54277344 29.97042969 13.33554688 30.19085938 14.15234375 30.41796875 C16.09830446 30.95721088 18.04874697 31.48023391 20 32 C20 32.99 20 33.98 20 35 C16.56487846 34.0791391 13.1580342 33.07865699 9.75 32.0625 C8.78191406 31.80404297 7.81382812 31.54558594 6.81640625 31.27929688 C-0.18744777 29.12983823 -0.18744777 29.12983823 -2.53369141 25.86743164 C-5.0491753 20.31670298 -6.79402918 14.75263448 -5.0625 8.75 C-4.5365625 7.38875 -4.5365625 7.38875 -4 6 C-4 5.01 -4 4.02 -4 3 C-2.68 3 -1.36 3 0 3 C0 2.01 0 1.02 0 0 Z " fill="#B22DA9" transform="translate(191,61)"/>
<path d="M0 0 C0.33 0 0.66 0 1 0 C1.36921296 5.53819444 1.36921296 5.53819444 -0.24609375 7.55859375 C-4.53192812 11.08080507 -9.20999076 13.05966697 -14.75 12.875 C-17.62608514 12.10066939 -20.29016969 11.23174105 -23 10 C-23 9.34 -23 8.68 -23 8 C-26.62197194 6.50859979 -30.27566618 5.2125738 -34 4 C-35.98 5.98 -37.96 7.96 -40 10 C-40.66 9.67 -41.32 9.34 -42 9 C-39.36 6.36 -36.72 3.72 -34 1 C-29.83195136 2.17463189 -26.59397108 3.82085271 -23.0012207 6.22460938 C-17.45594234 9.99628942 -17.45594234 9.99628942 -10.97265625 10.6328125 C-8.50908683 9.58371539 -6.30987977 8.34326996 -4 7 C-3.01 7 -2.02 7 -1 7 C-0.67 4.69 -0.34 2.38 0 0 Z " fill="#A9349F" transform="translate(100,32)"/>
<path d="M0 0 C2.6114183 3.2965126 4.69751651 6.76932186 6.75 10.4375 C7.38421875 11.54996094 8.0184375 12.66242188 8.671875 13.80859375 C10.10518115 17.25274413 10.35502224 18.56806594 9 22 C7.193913 24.02621949 5.19582841 25.36480863 3 27 C3.33 25.35 3.66 23.7 4 22 C4.99 21.67 5.98 21.34 7 21 C6.67 18.36 6.34 15.72 6 13 C4.68 13.33 3.36 13.66 2 14 C2.66 14.33 3.32 14.66 4 15 C3.39816251 17.02045442 2.72693904 19.02111039 2 21 C1.34 21.33 0.68 21.66 0 22 C0.33 20.02 0.66 18.04 1 16 C0.34 16 -0.32 16 -1 16 C-0.67 14.68 -0.34 13.36 0 12 C0.66 12 1.32 12 2 12 C1.67 10.7625 1.34 9.525 1 8.25 C0.20108841 5.25408155 0 3.19892281 0 0 Z " fill="#B403A7" transform="translate(186,144)"/>
<path d="M0 0 C1 1 1 1 1.375 3.3125 C1 6 1 6 -1.5 8.3125 C-2.325 8.869375 -3.15 9.42625 -4 10 C-3.67 9.4225 -3.34 8.845 -3 8.25 C-1.72924102 5.80116138 -1.72924102 5.80116138 -2 2 C-5.85485585 2.55069369 -7.41199853 4.17672567 -10 7 C-14.65909091 11.88636364 -14.65909091 11.88636364 -18 13 C-18.309375 13.61875 -18.61875 14.2375 -18.9375 14.875 C-20.20298687 17.40597375 -21.67272837 18.44848558 -24 20 C-24.33 19.01 -24.66 18.02 -25 17 C-24.30777344 16.41605469 -24.30777344 16.41605469 -23.6015625 15.8203125 C-18.51583852 11.45824885 -13.78054575 6.83393388 -9.1015625 2.0390625 C-5.77062705 -1.19281167 -4.39445392 -1.12678306 0 0 Z " fill="#B33DAC" transform="translate(100,88)"/>
<path d="M0 0 C1.41377341 2.63904371 2.37240135 5.07120629 3 8 C-2.16017278 10.98746845 -7.19834261 12.02541328 -13 13 C-13 12.34 -13 11.68 -13 11 C-10.03 10.01 -7.06 9.02 -4 8 C-5.32 7.34 -6.64 6.68 -8 6 C-3.375 1.125 -3.375 1.125 0 0 Z " fill="#BA0AA8" transform="translate(209,117)"/>
<path d="M0 0 C-1.29012469 3.87037407 -2.66433765 4.26188495 -6.1875 6.1875 C-7.12980469 6.71730469 -8.07210937 7.24710938 -9.04296875 7.79296875 C-12.26046858 9.10632073 -14.55937133 9.22937524 -18 9 C-18 7.68 -18 6.36 -18 5 C-17.01 5 -16.02 5 -15 5 C-15 4.34 -15 3.68 -15 3 C-15.66 2.67 -16.32 2.34 -17 2 C-14.33333333 2 -11.66666667 2 -9 2 C-5.94626645 1.47863086 -2.99705685 0 0 0 Z " fill="#B616A5" transform="translate(84,175)"/>
<path d="M0 0 C0.33 0.66 0.66 1.32 1 2 C1.66 2.33 2.32 2.66 3 3 C2.01 3.33 1.02 3.66 0 4 C1.3089572 7.12197478 1.3089572 7.12197478 4 9 C4 9.66 4 10.32 4 11 C5.65 10.67 7.3 10.34 9 10 C9.3403125 11.423125 9.3403125 11.423125 9.6875 12.875 C10.67628816 16.19044598 10.67628816 16.19044598 13.5625 17.25 C14.366875 17.4975 15.17125 17.745 16 18 C16.33 18.66 16.66 19.32 17 20 C16.01 20 15.02 20 14 20 C13.67 20.66 13.34 21.32 13 22 C10.67103983 19.78751023 8.36507052 17.55241554 6.0625 15.3125 C5.0734668 14.37374023 5.0734668 14.37374023 4.06445312 13.41601562 C-0.71843863 8.73123447 -0.71843863 8.73123447 -2.06640625 5.23046875 C-2 3 -2 3 0 0 Z " fill="#AE0D9E" transform="translate(75,106)"/>
<path d="M0 0 C0.66 0.99 1.32 1.98 2 3 C1.125 6.5625 1.125 6.5625 0 10 C0 10.66 0 11.32 0 12 C-0.66 12 -1.32 12 -2 12 C-1.34 13.32 -0.68 14.64 0 16 C-0.66 16 -1.32 16 -2 16 C-2 16.99 -2 17.98 -2 19 C-1.1028125 18.5359375 -1.1028125 18.5359375 -0.1875 18.0625 C2 17 2 17 5 16 C4.25 20.75 4.25 20.75 2 23 C-0.625 23.125 -0.625 23.125 -3 23 C-5.61102274 17.77795452 -3.60510002 11.82923444 -2 6.5625 C-1.62875 5.32628906 -1.2575 4.09007813 -0.875 2.81640625 C-0.58625 1.88699219 -0.2975 0.95757812 0 0 Z " fill="#A6269D" transform="translate(113,112)"/>
<path d="M0 0 C2.64 0 5.28 0 8 0 C6.51546392 5.69072165 6.51546392 5.69072165 4.125 7.125 C3.42375 7.41375 2.7225 7.7025 2 8 C0.62913085 9.29470975 -0.71340837 10.62150897 -2 12 C-3.12377697 8.69564916 -2.89554742 6.9493138 -1.5625 3.75 C-1.27503906 3.04359375 -0.98757812 2.3371875 -0.69140625 1.609375 C-0.46324219 1.07828125 -0.23507813 0.5471875 0 0 Z " fill="#BA10A8" transform="translate(105,17)"/>
<path d="M0 0 C3.32515513 0.43555851 4.30897868 1.44653879 6.61254883 3.84375 C7.31831055 4.565625 8.02407227 5.2875 8.7512207 6.03125 C9.47245117 6.794375 10.19368164 7.5575 10.93676758 8.34375 C12.04761719 9.4884375 12.04761719 9.4884375 13.1809082 10.65625 C15.00709913 12.54135032 16.82062517 14.43710569 18.62426758 16.34375 C15.62426758 16.34375 15.62426758 16.34375 13.37426758 14.28125 C11.87294117 12.70778778 10.41027436 11.10570134 8.95629883 9.48828125 C5.21849963 5.45898008 5.21849963 5.45898008 0.18676758 3.40625 C-1.08166992 3.3753125 -1.08166992 3.3753125 -2.37573242 3.34375 C-2.37573242 4.66375 -2.37573242 5.98375 -2.37573242 7.34375 C-0.72573242 7.34375 0.92426758 7.34375 2.62426758 7.34375 C2.62426758 8.00375 2.62426758 8.66375 2.62426758 9.34375 C1.96426758 9.34375 1.30426758 9.34375 0.62426758 9.34375 C0.29426758 10.00375 -0.03573242 10.66375 -0.37573242 11.34375 C-4.27420958 8.0544099 -4.27420958 8.0544099 -4.75073242 4.71875 C-4.22989211 1.42009468 -3.30990585 0.47891763 0 0 Z " fill="#B035AA" transform="translate(141.375732421875,86.65625)"/>
<path d="M0 0 C0.33 0.99 0.66 1.98 1 3 C-0.86759004 6.51968892 -2.1486353 8.57431765 -5.75 10.375 C-6.4925 10.58125 -7.235 10.7875 -8 11 C-8 11.66 -8 12.32 -8 13 C-9.875 15.125 -9.875 15.125 -12 17 C-12.66 17 -13.32 17 -14 17 C-13.81171228 19.44480079 -13.81171228 19.44480079 -13 22 C-11.03241727 23.36020151 -11.03241727 23.36020151 -9 24 C-11.375 24.625 -11.375 24.625 -14 25 C-16 23 -16 23 -16.0625 19.83203125 C-14.62683259 14.65412784 -11.88400382 12.24656255 -8 8.6875 C-6.7065764 7.46409441 -5.41482489 6.23891785 -4.125 5.01171875 C-3.55007812 4.48022217 -2.97515625 3.94872559 -2.3828125 3.40112305 C-0.88494523 2.02820827 -0.88494523 2.02820827 0 0 Z " fill="#BA37AF" transform="translate(153,110)"/>
<path d="M0 0 C0.66 0.66 1.32 1.32 2 2 C2.66 1.67 3.32 1.34 4 1 C4.39258795 5.44933005 3.41449309 8.25337279 1 12 C-1.5 13.25 -1.5 13.25 -4 14 C-4.99 14.66 -5.98 15.32 -7 16 C-5.56835889 12.34061828 -4.01065704 8.76011932 -2.375 5.1875 C-1.92898437 4.21167969 -1.48296875 3.23585937 -1.0234375 2.23046875 C-0.51683594 1.12638672 -0.51683594 1.12638672 0 0 Z " fill="#B813A9" transform="translate(174,126)"/>
<path d="M0 0 C0.66 0 1.32 0 2 0 C2.80859375 1.671875 2.80859375 1.671875 3 4 C0.91015625 6.578125 0.91015625 6.578125 -1.9375 9.25 C-2.87464844 10.14203125 -3.81179687 11.0340625 -4.77734375 11.953125 C-5.51082031 12.62859375 -6.24429688 13.3040625 -7 14 C-12.75 12.25 -12.75 12.25 -15 10 C-9.555 9.505 -9.555 9.505 -4 9 C-3.67 7.35 -3.34 5.7 -3 4 C-1.5625 1.6875 -1.5625 1.6875 0 0 Z " fill="#AC19A0" transform="translate(182,172)"/>
<path d="M0 0 C1.16445606 3.49336818 0.77002998 4.62826149 -0.21484375 8.10546875 C-0.48876953 9.08837891 -0.76269531 10.07128906 -1.04492188 11.08398438 C-1.33947266 12.10814453 -1.63402344 13.13230469 -1.9375 14.1875 C-2.22818359 15.22326172 -2.51886719 16.25902344 -2.81835938 17.32617188 C-3.53803977 19.88634639 -4.2655212 22.44403911 -5 25 C-5.33 25 -5.66 25 -6 25 C-6.33 23.02 -6.66 21.04 -7 19 C-6.34 19 -5.68 19 -5 19 C-5.185625 18.0925 -5.37125 17.185 -5.5625 16.25 C-5.97249548 13.20431925 -5.91294104 11.83011723 -5 9 C-4.65939189 7.33480481 -4.32441604 5.66842534 -4 4 C-3.34 4 -2.68 4 -2 4 C-1.34 2.68 -0.68 1.36 0 0 Z " fill="#B021A2" transform="translate(124,102)"/>
<path d="M0 0 C1.28961193 2.57922387 0.79211692 3.40291211 0.00390625 6.1328125 C-0.22490234 6.93847656 -0.45371094 7.74414062 -0.68945312 8.57421875 C-0.93630859 9.41597656 -1.18316406 10.25773438 -1.4375 11.125 C-1.68048828 11.97449219 -1.92347656 12.82398438 -2.17382812 13.69921875 C-2.7761431 15.80141612 -3.38510525 17.90145431 -4 20 C-4.66 19.67 -5.32 19.34 -6 19 C-6 17.02 -6 15.04 -6 13 C-6.66 12.67 -7.32 12.34 -8 12 C-7.34 12 -6.68 12 -6 12 C-5.67 10.35 -5.34 8.7 -5 7 C-4.34 7 -3.68 7 -3 7 C-2.814375 5.5459375 -2.814375 5.5459375 -2.625 4.0625 C-2.41875 3.051875 -2.2125 2.04125 -2 1 C-1.34 0.67 -0.68 0.34 0 0 Z " fill="#AB159F" transform="translate(141,183)"/>
<path d="M0 0 C0 4.16071737 -2.30978044 6.09360208 -5 9 C-5.598125 9.556875 -6.19625 10.11375 -6.8125 10.6875 C-8.33545666 12.07577201 -8.33545666 12.07577201 -8 15 C-7.34 15 -6.68 15 -6 15 C-3 20.75 -3 20.75 -3 23 C-2.34 23 -1.68 23 -1 23 C-1 23.66 -1 24.32 -1 25 C-1.99 25 -2.98 25 -4 25 C-5.0384211 23.28133783 -6.05514635 21.54955402 -7.0625 19.8125 C-7.91521484 18.36810547 -7.91521484 18.36810547 -8.78515625 16.89453125 C-10.18881842 13.55011431 -10.3303081 12.34722683 -9 9 C-6.93359375 6.54296875 -6.93359375 6.54296875 -4.4375 4.1875 C-3.61121094 3.39730469 -2.78492188 2.60710938 -1.93359375 1.79296875 C-1.29550781 1.20128906 -0.65742187 0.60960937 0 0 Z " fill="#9E2997" transform="translate(55,44)"/>
<path d="M0 0 C3.76607955 1.25535985 4.26441793 2.52883585 6 6 C6 6.99 6 7.98 6 9 C6.99 9.33 7.98 9.66 9 10 C9.33 11.65 9.66 13.3 10 15 C10.33 15 10.66 15 11 15 C11 16.98 11 18.96 11 21 C10.01 21 9.02 21 8 21 C7.76216797 19.98292969 7.76216797 19.98292969 7.51953125 18.9453125 C5.80682332 12.11340575 3.3858207 6.16942033 0 0 Z " fill="#AC1FA4" transform="translate(166,76)"/>
<path d="M0 0 C2.1691865 1.47048011 3.40940365 3.08871486 4.85546875 5.2578125 C4.33984375 4.9071875 3.82421875 4.5565625 3.29296875 4.1953125 C-0.28708544 2.81836858 -2.42165737 3.34235171 -6.14453125 4.2578125 C-10.3617531 6.26467681 -14.26251325 8.6698005 -18.14453125 11.2578125 C-20.33203125 10.8828125 -20.33203125 10.8828125 -22.14453125 10.2578125 C-21.45488281 9.88269531 -20.76523438 9.50757813 -20.0546875 9.12109375 C-19.11496094 8.60933594 -18.17523438 8.09757812 -17.20703125 7.5703125 C-16.20671875 7.03019531 -15.20640625 6.49007812 -14.17578125 5.93359375 C-12.27949892 4.88526241 -10.40060879 3.80406461 -8.55078125 2.67578125 C-7.390625 1.97388672 -7.390625 1.97388672 -6.20703125 1.2578125 C-5.17255859 0.608125 -5.17255859 0.608125 -4.1171875 -0.0546875 C-2.14453125 -0.7421875 -2.14453125 -0.7421875 0 0 Z " fill="#AA39A2" transform="translate(175.14453125,33.7421875)"/>
<path d="M0 0 C7.11120489 1.31117661 14.04699943 3.01720516 21 5 C21 5.66 21 6.32 21 7 C21.99 7 22.98 7 24 7 C23.67 9.31 23.34 11.62 23 14 C21.25372522 11.38058783 20.61277612 9.96175123 20 7 C18.89140625 6.72285156 17.7828125 6.44570312 16.640625 6.16015625 C8.3203125 4.08007812 8.3203125 4.08007812 0 2 C0 1.34 0 0.68 0 0 Z " fill="#AA2EA2" transform="translate(29,125)"/>
<path d="M0 0 C2.85215083 2.75118973 5.34358701 5.60315225 7.75 8.75 C8.36359375 9.54921875 8.9771875 10.3484375 9.609375 11.171875 C10.06828125 11.77515625 10.5271875 12.3784375 11 13 C7.34648137 13 5.93973224 12.11057699 3 10 C1.6875 7.8125 1.6875 7.8125 1 6 C-0.65 6.33 -2.3 6.66 -4 7 C-3.34 6.01 -2.68 5.02 -2 4 C-1.01 4 -0.02 4 1 4 C0.67 2.68 0.34 1.36 0 0 Z " fill="#B418A6" transform="translate(71,137)"/>
<path d="M0 0 C0 4.96612677 -3.61935869 7.61336464 -7 11 C-15.6302173 18.89316458 -15.6302173 18.89316458 -19.8046875 19.21875 C-20.52914062 19.1465625 -21.25359375 19.074375 -22 19 C-19.84721829 17.36146591 -17.67569633 15.77601691 -15.44921875 14.23828125 C-9.44149371 10.04901895 -4.50633566 5.78287443 0 0 Z " fill="#AF31A4" transform="translate(166,142)"/>
<path d="M0 0 C4.10505054 3.40631853 8.10490293 6.91732309 12 10.5625 C12.78375 11.28566406 13.5675 12.00882813 14.375 12.75390625 C16 15 16 15 15.875 17.65234375 C15 20 15 20 13 22 C13 19.66666667 13 17.33333333 13 15 C11.60820125 13.84582543 10.21299828 12.69550578 8.80078125 11.56640625 C5.53141592 8.72255485 2.59097162 5.47251522 0 2 C0 1.34 0 0.68 0 0 Z " fill="#AD34A5" transform="translate(180,39)"/>
<path d="M0 0 C0.99 0.495 0.99 0.495 2 1 C2 1.99 2 2.98 2 4 C2.66 4 3.32 4 4 4 C4.33 2.68 4.66 1.36 5 0 C7 3 7 3 7 6 C6.34 6 5.68 6 5 6 C5.33 6.99 5.66 7.98 6 9 C4.68 9.33 3.36 9.66 2 10 C0.68373308 6.38026598 0 3.90432869 0 0 Z " fill="#B614A2" transform="translate(102,192)"/>
<path d="M0 0 C7 0 7 0 10 1 C10.33 1.66 10.66 2.32 11 3 C10.34 3 9.68 3 9 3 C9 5.31 9 7.62 9 10 C5.73991357 6.83047153 2.77762123 3.60062011 0 0 Z " fill="#AD14A0" transform="translate(157,66)"/>
<path d="M0 0 C0.99 0.33 1.98 0.66 3 1 C3.90837763 3.47739354 4 5.33579484 4 8 C1.69 7.67 -0.62 7.34 -3 7 C-3.33 6.01 -3.66 5.02 -4 4 C-2.68 2.68 -1.36 1.36 0 0 Z " fill="#B304A5" transform="translate(82,102)"/>
<path d="M0 0 C0.33 0.66 0.66 1.32 1 2 C1.66 2 2.32 2 3 2 C3 2.66 3 3.32 3 4 C-0.75 5.125 -0.75 5.125 -3 4 C-3 5.32 -3 6.64 -3 8 C-4.32 8.33 -5.64 8.66 -7 9 C-7.625 7.125 -7.625 7.125 -8 5 C-6.02805885 3.02805885 -4.49095467 2.167635 -2 1 C-1.34 0.67 -0.68 0.34 0 0 Z " fill="#BD0CA9" transform="translate(54,50)"/>
<path d="M0 0 C1.32 0 2.64 0 4 0 C4.33 0.66 4.66 1.32 5 2 C6.32303717 2.3721042 7.65737935 2.70630173 9 3 C9.33 3.33 9.66 3.66 10 4 C10.66 3.01 11.32 2.02 12 1 C11.67 2.65 11.34 4.3 11 6 C9.35 6.33 7.7 6.66 6 7 C4.02 4.69 2.04 2.38 0 0 Z " fill="#AA229A" transform="translate(89,128)"/>
<path d="M0 0 C4.34464536 0.60825035 8.67551867 1.26167392 13 2 C13 2.66 13 3.32 13 4 C6.375 7.125 6.375 7.125 3 6 C3.66 5.34 4.32 4.68 5 4 C4.175 3.525625 3.35 3.05125 2.5 2.5625 C1.675 2.046875 0.85 1.53125 0 1 C0 0.67 0 0.34 0 0 Z " fill="#AF26A7" transform="translate(102,163)"/>
<path d="M0 0 C0.66 0.33 1.32 0.66 2 1 C2.625 4.0625 2.625 4.0625 3 7 C0 9 0 9 -3.1875 8.625 C-4.5796875 8.315625 -4.5796875 8.315625 -6 8 C-6 7.34 -6 6.68 -6 6 C-3.35261084 4.5393715 -2.10551666 4 1 4 C0.67 2.68 0.34 1.36 0 0 Z " fill="#BA0DB3" transform="translate(160,106)"/>
<path d="M0 0 C0.33 0.66 0.66 1.32 1 2 C-3.75 6 -3.75 6 -6 6 C-6.2475 6.598125 -6.495 7.19625 -6.75 7.8125 C-8.16370012 10.28647521 -9.65055383 11.43370255 -12 13 C-12.33 12.01 -12.66 11.02 -13 10 C-4.738041 2.51708428 -4.738041 2.51708428 0 0 Z " fill="#BD3AB1" transform="translate(88,95)"/>
<path d="M0 0 C0.66 0.33 1.32 0.66 2 1 C0.375 7.75 0.375 7.75 -3 10 C-3.33 10.66 -3.66 11.32 -4 12 C-4.66 11.67 -5.32 11.34 -6 11 C-6 8 -6 8 -5 5 C-4.01 4.67 -3.02 4.34 -2 4 C-0.79117904 1.99983534 -0.79117904 1.99983534 0 0 Z " fill="#BD0DB1" transform="translate(72,72)"/>
<path d="M0 0 C1.65322266 0.01740234 1.65322266 0.01740234 3.33984375 0.03515625 C4.99693359 0.04869141 4.99693359 0.04869141 6.6875 0.0625 C7.54214844 0.07410156 8.39679688 0.08570312 9.27734375 0.09765625 C9.60734375 1.41765625 9.93734375 2.73765625 10.27734375 4.09765625 C8.31832921 3.98382972 6.36010995 3.856245 4.40234375 3.72265625 C3.31179687 3.65304688 2.22125 3.5834375 1.09765625 3.51171875 C-1.72265625 3.09765625 -1.72265625 3.09765625 -3.72265625 1.09765625 C-2.72265625 0.09765625 -2.72265625 0.09765625 0 0 Z " fill="#9C1C8C" transform="translate(126.72265625,16.90234375)"/>
<path d="M0 0 C2.28828903 0.01074314 4.53090164 0.10934214 6.80859375 0.32421875 C6.80859375 0.98421875 6.80859375 1.64421875 6.80859375 2.32421875 C5.75671875 2.36546875 4.70484375 2.40671875 3.62109375 2.44921875 C-1.40066893 3.60175445 -2.13690206 5.33639384 -5.19140625 9.32421875 C-6.18140625 9.32421875 -7.17140625 9.32421875 -8.19140625 9.32421875 C-8.19140625 8.66421875 -8.19140625 8.00421875 -8.19140625 7.32421875 C-7.20140625 6.66421875 -6.21140625 6.00421875 -5.19140625 5.32421875 C-4.82015625 4.45796875 -4.44890625 3.59171875 -4.06640625 2.69921875 C-2.19140625 0.32421875 -2.19140625 0.32421875 0 0 Z " fill="#B513B4" transform="translate(116.19140625,16.67578125)"/>
<path d="M0 0 C2.33944736 0.28730055 4.6739143 0.61936779 7 1 C6.67 1.66 6.34 2.32 6 3 C4.35 3 2.7 3 1 3 C0.87882813 3.62648437 0.75765625 4.25296875 0.6328125 4.8984375 C0.46523437 5.71570313 0.29765625 6.53296875 0.125 7.375 C-0.03742188 8.18710938 -0.19984375 8.99921875 -0.3671875 9.8359375 C-1 12 -1 12 -3 14 C-2.855625 13.154375 -2.71125 12.30875 -2.5625 11.4375 C-2.16806729 9.02707791 -1.81760562 6.60924286 -1.5 4.1875 C-1 1 -1 1 0 0 Z " fill="#A72599" transform="translate(189,129)"/>
<path d="M0 0 C0.78375 0.04125 1.5675 0.0825 2.375 0.125 C2.705 0.785 3.035 1.445 3.375 2.125 C1.395 2.455 -0.585 2.785 -2.625 3.125 C-2.625 4.445 -2.625 5.765 -2.625 7.125 C-0.975 7.125 0.675 7.125 2.375 7.125 C2.375 7.785 2.375 8.445 2.375 9.125 C1.715 9.125 1.055 9.125 0.375 9.125 C0.045 9.785 -0.285 10.445 -0.625 11.125 C-4.52347716 7.8356599 -4.52347716 7.8356599 -5 4.5 C-4.45056735 1.02025986 -3.51621146 0.16743864 0 0 Z " fill="#A72B9E" transform="translate(141.625,86.875)"/>
<path d="M0 0 C3.96 4.2 3.96 4.2 4.125 7.5 C2.4999205 11.11128778 0.16292315 12.6446317 -3 15 C-2.67 13.35 -2.34 11.7 -2 10 C-1.01 9.67 -0.02 9.34 1 9 C0.67 6.03 0.34 3.06 0 0 Z " fill="#A82BA3" transform="translate(192,156)"/>
<path d="M0 0 C3.67446567 0.70662801 6.73912209 2.18840116 10 4 C10.33 4.66 10.66 5.32 11 6 C8 7 8 7 6.0625 6.125 C5.381875 5.75375 4.70125 5.3825 4 5 C2.6757713 4.63215869 1.34386088 4.28797019 0 4 C0 2.68 0 1.36 0 0 Z " fill="#BF0EAE" transform="translate(184,50)"/>
<path d="M0 0 C0.99 0.66 1.98 1.32 3 2 C3 3.32 3 4.64 3 6 C2.01 6.495 2.01 6.495 1 7 C0.67 7.99 0.34 8.98 0 10 C-0.99 10 -1.98 10 -3 10 C-2.45276317 6.62537285 -1.9451 4.91765 0 2 C0 1.34 0 0.68 0 0 Z " fill="#BE0CB5" transform="translate(185,150)"/>
<path d="M0 0 C0 0.99 0 1.98 0 3 C-1.93558599 3.67220351 -3.87354372 4.33758077 -5.8125 5 C-6.89144531 5.37125 -7.97039062 5.7425 -9.08203125 6.125 C-12 7 -12 7 -15 7 C-15 6.34 -15 5.68 -15 5 C-10 3.33333333 -5 1.66666667 0 0 Z " fill="#AB30A1" transform="translate(211,123)"/>
<path d="M0 0 C1.94117017 2.91175526 2.51240919 4.72960637 3.3125 8.0625 C4.36467464 12.14993109 4.36467464 12.14993109 7.6875 14.625 C8.450625 14.74875 9.21375 14.8725 10 15 C10 15.33 10 15.66 10 16 C7.69 16 5.38 16 3 16 C2.49193553 14.27318563 1.99389533 12.54342021 1.5 10.8125 C1.08234375 9.36810547 1.08234375 9.36810547 0.65625 7.89453125 C0.03322392 5.14654124 -0.12302812 2.80401584 0 0 Z " fill="#A42F9A" transform="translate(138,25)"/>
<path d="M0 0 C0.28875 0.61875 0.5775 1.2375 0.875 1.875 C1.93720042 4.13325765 1.93720042 4.13325765 4 6 C3.071875 6.45375 2.14375 6.9075 1.1875 7.375 C-2.03921389 8.9421633 -2.03921389 8.9421633 -5 11 C-3.55049545 7.2089881 -1.84827434 3.6125362 0 0 Z " fill="#AF1DA1" transform="translate(172,131)"/>
<path d="M0 0 C2.475 0.495 2.475 0.495 5 1 C5 1.99 5 2.98 5 4 C6.32 4.33 7.64 4.66 9 5 C9.33 6.65 9.66 8.3 10 10 C2.51708428 3.84965831 2.51708428 3.84965831 0 0 Z " fill="#AA179B" transform="translate(142,98)"/>
<path d="M0 0 C0 3.76103971 -1.04774872 4.67955811 -3.375 7.5625 C-4.00148438 8.34753906 -4.62796875 9.13257812 -5.2734375 9.94140625 C-7 12 -7 12 -9 14 C-9 12.68 -9 11.36 -9 10 C-8.34 10 -7.68 10 -7 10 C-7.12375 9.2575 -7.2475 8.515 -7.375 7.75 C-7 5 -7 5 -4.0625 2.75 C-3.051875 2.1725 -2.04125 1.595 -1 1 C-0.67 0.67 -0.34 0.34 0 0 Z " fill="#A52199" transform="translate(79,70)"/>
<path d="M0 0 C0.33 0.66 0.66 1.32 1 2 C-0.05767578 2.18369141 -0.05767578 2.18369141 -1.13671875 2.37109375 C-4.15503183 3.03405201 -6.91889442 3.98175575 -9.8125 5.0625 C-10.78832031 5.42472656 -11.76414063 5.78695312 -12.76953125 6.16015625 C-13.50558594 6.43730469 -14.24164063 6.71445313 -15 7 C-14.67 6.01 -14.34 5.02 -14 4 C-10.5625 2.375 -10.5625 2.375 -7 1 C-4.53721199 -0.231394 -2.7204945 -0.07159196 0 0 Z " fill="#AB32A1" transform="translate(157,175)"/>
<path d="M0 0 C0.66 0 1.32 0 2 0 C3.59425594 3.48743486 4.40452876 6.15697679 4 10 C3.01 11.485 3.01 11.485 2 13 C1.01 13 0.02 13 -1 13 C-0.649375 12.154375 -0.29875 11.30875 0.0625 10.4375 C1.12277509 6.54982467 0.78314872 3.91574361 0 0 Z " fill="#AE20A2" transform="translate(52,139)"/>
<path d="M0 0 C0.33 0.66 0.66 1.32 1 2 C1.66 2.33 2.32 2.66 3 3 C2.01 3.33 1.02 3.66 0 4 C1.29299694 6.88437779 2.65941363 8.87219421 5 11 C4.67 11.66 4.34 12.32 4 13 C1.80401069 10.79128032 -0.25476403 8.58573305 -2 6 C-1.94203558 3.33363653 -1.90716809 1.90716809 0 0 Z " fill="#9C1A92" transform="translate(75,106)"/>
<path d="M0 0 C2.64 0.66 5.28 1.32 8 2 C4.77484237 3.73662334 1.48670834 4.8905928 -2 6 C-2.33 5.01 -2.66 4.02 -3 3 C-2.01 3 -1.02 3 0 3 C0 2.01 0 1.02 0 0 Z " fill="#A817A4" transform="translate(148,41)"/>
<path d="M0 0 C1.32 0.99 2.64 1.98 4 3 C3.34 4.32 2.68 5.64 2 7 C1.01 7 0.02 7 -1 7 C-1 6.34 -1 5.68 -1 5 C-1.66 4.67 -2.32 4.34 -3 4 C-2.34 4 -1.68 4 -1 4 C-0.67 2.68 -0.34 1.36 0 0 Z " fill="#BB18AE" transform="translate(152,117)"/>
<path d="M0 0 C2.74792483 3.40219265 6 7.48464588 6 12 C4.125 11.375 4.125 11.375 2 10 C0.42687589 6.38181456 0 3.97906647 0 0 Z " fill="#A2239B" transform="translate(186,144)"/>
<path d="M0 0 C0.81210938 0.33837891 0.81210938 0.33837891 1.640625 0.68359375 C-0.10060049 1.71932271 -1.85274095 2.73671895 -3.609375 3.74609375 C-5.07117188 4.59880859 -5.07117188 4.59880859 -6.5625 5.46875 C-9.359375 6.68359375 -9.359375 6.68359375 -11.71875 6.3671875 C-12.26015625 6.14160156 -12.8015625 5.91601562 -13.359375 5.68359375 C-11.61814951 4.64786479 -9.86600905 3.63046855 -8.109375 2.62109375 C-6.64757812 1.76837891 -6.64757812 1.76837891 -5.15625 0.8984375 C-2.359375 -0.31640625 -2.359375 -0.31640625 0 0 Z " fill="#B933AE" transform="translate(166.359375,38.31640625)"/>
<path d="M0 0 C2.97 0.33 5.94 0.66 9 1 C9 1.66 9 2.32 9 3 C8.01 3 7.02 3 6 3 C6 3.66 6 4.32 6 5 C4.68 4.34 3.36 3.68 2 3 C2 2.34 2 1.68 2 1 C1.34 0.67 0.68 0.34 0 0 Z " fill="#B404AE" transform="translate(60,177)"/>
<path d="M0 0 C2.64752004 2.57784846 4.94432065 4.91648098 7 8 C1.25 6.375 1.25 6.375 -1 3 C-0.67 2.01 -0.34 1.02 0 0 Z " fill="#A223A4" transform="translate(75,143)"/>
<path d="M0 0 C0.99 0 1.98 0 3 0 C2.67 1.65 2.34 3.3 2 5 C0.68 5.33 -0.64 5.66 -2 6 C-2 5.34 -2 4.68 -2 4 C-2.99 4 -3.98 4 -5 4 C-4.67 3.34 -4.34 2.68 -4 2 C-1.9375 1.375 -1.9375 1.375 0 1 C0 0.67 0 0.34 0 0 Z " fill="#A91795" transform="translate(115,128)"/>
<path d="M0 0 C1.24546405 2.49092811 0.7767578 3.41080733 0 6 C2.475 6.99 2.475 6.99 5 8 C4.67 8.66 4.34 9.32 4 10 C-0.875 9.125 -0.875 9.125 -2 8 C-1.28 1.28 -1.28 1.28 0 0 Z " fill="#B03EA6" transform="translate(139,125)"/>
<path d="M0 0 C3.73884332 2.65654657 5.64978174 4.58110387 7 9 C5.68 9 4.36 9 3 9 C2.71125 8.236875 2.4225 7.47375 2.125 6.6875 C1.03730987 3.84970692 1.03730987 3.84970692 -1 1 C-0.67 0.67 -0.34 0.34 0 0 Z " fill="#C00FB1" transform="translate(149,99)"/>
<path d="M0 0 C0.66 0 1.32 0 2 0 C5 5.75 5 5.75 5 8 C5.66 8 6.32 8 7 8 C7 8.66 7 9.32 7 10 C6.01 10 5.02 10 4 10 C3.32845067 8.71086513 2.66291141 7.41859796 2 6.125 C1.62875 5.40570313 1.2575 4.68640625 0.875 3.9453125 C0 2 0 2 0 0 Z " fill="#A91EA2" transform="translate(47,59)"/>
<path d="M0 0 C1.32 1.32 2.64 2.64 4 4 C2.75 5.5 2.75 5.5 1 7 C-0.32 7 -1.64 7 -3 7 C-3 6.01 -3 5.02 -3 4 C-2.01 4 -1.02 4 0 4 C-0.33 3.01 -0.66 2.02 -1 1 C-0.67 0.67 -0.34 0.34 0 0 Z " fill="#BB13B4" transform="translate(114,124)"/>
<path d="M0 0 C0.66 0.33 1.32 0.66 2 1 C1.67 3.31 1.34 5.62 1 8 C0.34 8 -0.32 8 -1 8 C-1.33 5.69 -1.66 3.38 -2 1 C-1.34 0.67 -0.68 0.34 0 0 Z " fill="#A4169C" transform="translate(125,93)"/>
<path d="M0 0 C0.66 1.32 1.32 2.64 2 4 C-1 5 -1 5 -4.1875 3.5625 C-5.115625 3.046875 -6.04375 2.53125 -7 2 C-4.66682784 1.22227595 -2.38564077 0.57584432 0 0 Z " fill="#AC239F" transform="translate(174,181)"/>
<path d="M0 0 C0.33 0.66 0.66 1.32 1 2 C1.99 2 2.98 2 4 2 C4 3.32 4 4.64 4 6 C2.68 6 1.36 6 0 6 C-0.38218767 4.34385343 -0.71395102 2.67542976 -1 1 C-0.67 0.67 -0.34 0.34 0 0 Z " fill="#B402B3" transform="translate(182,164)"/>
<path d="M0 0 C0.99 0 1.98 0 3 0 C3.33 2.31 3.66 4.62 4 7 C2.68 7 1.36 7 0 7 C0 4.69 0 2.38 0 0 Z " fill="#BC0DB3" transform="translate(55,141)"/>
<path d="M0 0 C2.96175123 0.61277612 4.38058783 1.25372522 7 3 C6.01 4.32 5.02 5.64 4 7 C4 6.34 4 5.68 4 5 C2.68 4.34 1.36 3.68 0 3 C0 2.01 0 1.02 0 0 Z " fill="#B80AAC" transform="translate(75,110)"/>
<path d="M0 0 C1.67542976 0.28604898 3.34385343 0.61781233 5 1 C4.67 1.99 4.34 2.98 4 4 C1.9375 4.6875 1.9375 4.6875 0 5 C-0.5625 3.0625 -0.5625 3.0625 -1 1 C-0.67 0.67 -0.34 0.34 0 0 Z " fill="#BF12B4" transform="translate(122,90)"/>
<path d="M0 0 C2.28459758 2.28459758 2.97129748 4.12537344 4.125 7.125 C4.47820312 8.03507812 4.83140625 8.94515625 5.1953125 9.8828125 C5.46085938 10.58148438 5.72640625 11.28015625 6 12 C5.01 12 4.02 12 3 12 C2.49166409 10.75336669 1.99368855 9.50250613 1.5 8.25 C1.2215625 7.55390625 0.943125 6.8578125 0.65625 6.140625 C0 4 0 4 0 0 Z " fill="#9C2691" transform="translate(186,76)"/>
<path d="M0 0 C4.38889325 0.66498383 7.9811485 2.18757677 12 4 C8.69564916 5.12377697 6.9493138 4.89554742 3.75 3.5625 C3.04359375 3.27503906 2.3371875 2.98757812 1.609375 2.69140625 C1.07828125 2.46324219 0.5471875 2.23507813 0 2 C0 1.34 0 0.68 0 0 Z " fill="#BE30B2" transform="translate(77,40)"/>
<path d="M0 0 C2.26274788 0.35355436 3.95088852 0.97544426 6 2 C6 2.66 6 3.32 6 4 C5.21625 3.79375 4.4325 3.5875 3.625 3.375 C2.75875 3.25125 1.8925 3.1275 1 3 C0.34 3.66 -0.32 4.32 -1 5 C-1.33 4.01 -1.66 3.02 -2 2 C-1.34 1.34 -0.68 0.68 0 0 Z " fill="#C112B4" transform="translate(86,117)"/>
<path d="M0 0 C0.66 0.33 1.32 0.66 2 1 C2.625 4.0625 2.625 4.0625 3 7 C1.68 7 0.36 7 -1 7 C-0.67 4.69 -0.34 2.38 0 0 Z " fill="#BF0DAF" transform="translate(53,85)"/>
<path d="M0 0 C0.99 0.33 1.98 0.66 3 1 C2.67 2.65 2.34 4.3 2 6 C1.01 6.33 0.02 6.66 -1 7 C-0.67 4.69 -0.34 2.38 0 0 Z " fill="#9D1295" transform="translate(103,22)"/>
<path d="M0 0 C0.33 1.32 0.66 2.64 1 4 C0.01 4.66 -0.98 5.32 -2 6 C-2.66 5.67 -3.32 5.34 -4 5 C-4 3.68 -4 2.36 -4 1 C-2 0 -2 0 0 0 Z " fill="#B915B4" transform="translate(138,21)"/>
<path d="M0 0 C0.33 0.99 0.66 1.98 1 3 C0.67 3.33 0.34 3.66 0 4 C0.66 4.66 1.32 5.32 2 6 C0.68 6.99 -0.64 7.98 -2 9 C-3.125 4.25 -3.125 4.25 -2 2 C-1.34 2 -0.68 2 0 2 C0 1.34 0 0.68 0 0 Z " fill="#BC11AE" transform="translate(117,108)"/>
<path d="M0 0 C1.98 0 3.96 0 6 0 C4.02 2.31 2.04 4.62 0 7 C-0.66 6.34 -1.32 5.68 -2 5 C-1.34 4.67 -0.68 4.34 0 4 C0 2.68 0 1.36 0 0 Z " fill="#B121A5" transform="translate(86,102)"/>
<path d="M0 0 C0.66 0.33 1.32 0.66 2 1 C2.3125 3.25 2.3125 3.25 2 6 C-0.5 8.3125 -0.5 8.3125 -3 10 C-2.67 9.443125 -2.34 8.88625 -2 8.3125 C-0.86788784 5.69449063 -0.92378177 3.82007437 -1 1 C-0.67 0.67 -0.34 0.34 0 0 Z " fill="#A23097" transform="translate(99,88)"/>
<path d="M0 0 C2.125 0.9375 2.125 0.9375 4 2 C1.38058783 3.74627478 -0.03824877 4.38722388 -3 5 C-2.625 3.0625 -2.625 3.0625 -2 1 C-1.34 0.67 -0.68 0.34 0 0 Z " fill="#B506A8" transform="translate(141,126)"/>
<path d="M0 0 C0.33 0.66 0.66 1.32 1 2 C1.66 2 2.32 2 3 2 C3 2.66 3 3.32 3 4 C0.69 4.33 -1.62 4.66 -4 5 C-4 4.34 -4 3.68 -4 3 C-2 1.375 -2 1.375 0 0 Z " fill="#C110B6" transform="translate(54,50)"/>
<path d="M0 0 C0.66 0 1.32 0 2 0 C2.33 1.32 2.66 2.64 3 4 C1.02 4.99 1.02 4.99 -1 6 C-1.042721 4.33388095 -1.04063832 2.66617115 -1 1 C-0.67 0.67 -0.34 0.34 0 0 Z " fill="#B113A7" transform="translate(182,172)"/>
<path d="M0 0 C0 0.99 0 1.98 0 3 C-2.5 5.1875 -2.5 5.1875 -5 7 C-5 6.34 -5 5.68 -5 5 C-5.66 4.34 -6.32 3.68 -7 3 C-5.5459375 2.5359375 -5.5459375 2.5359375 -4.0625 2.0625 C-1.15934208 1.30476658 -1.15934208 1.30476658 0 0 Z " fill="#B029A8" transform="translate(163,112)"/>
<path d="M0 0 C2.64 0 5.28 0 8 0 C7.34 1.32 6.68 2.64 6 4 C5.67 3.34 5.34 2.68 5 2 C3.35 2 1.7 2 0 2 C0 1.34 0 0.68 0 0 Z " fill="#871C7D" transform="translate(105,17)"/>
<path d="" fill="#FFFFFF" transform="translate(0,0)"/>
<path d="" fill="#FFFFFF" transform="translate(0,0)"/>
<path d="" fill="#FFFFFF" transform="translate(0,0)"/>
<path d="" fill="#FFFFFF" transform="translate(0,0)"/>
<path d="" fill="#FFFFFF" transform="translate(0,0)"/>
<path d="" fill="#FFFFFF" transform="translate(0,0)"/>
<path d="" fill="#FFFFFF" transform="translate(0,0)"/>
<path d="" fill="#FFFFFF" transform="translate(0,0)"/>
<path d="" fill="#FFFFFF" transform="translate(0,0)"/>
<path d="" fill="#FFFFFF" transform="translate(0,0)"/>
<path d="" fill="#FFFFFF" transform="translate(0,0)"/>
<path d="" fill="#FFFFFF" transform="translate(0,0)"/>
<path d="" fill="#FFFFFF" transform="translate(0,0)"/>
<path d="" fill="#FFFFFF" transform="translate(0,0)"/>
<path d="" fill="#FFFFFF" transform="translate(0,0)"/>
<path d="" fill="#FFFFFF" transform="translate(0,0)"/>
<path d="" fill="#FFFFFF" transform="translate(0,0)"/>
<path d="" fill="#FFFFFF" transform="translate(0,0)"/>
<path d="" fill="#FFFFFF" transform="translate(0,0)"/>
<path d="" fill="#FFFFFF" transform="translate(0,0)"/>
<path d="" fill="#FFFFFF" transform="translate(0,0)"/>
<path d="" fill="#FFFFFF" transform="translate(0,0)"/>
<path d="" fill="#FFFFFF" transform="translate(0,0)"/>
<path d="" fill="#FFFFFF" transform="translate(0,0)"/>
<path d="" fill="#FFFFFF" transform="translate(0,0)"/>
<path d="" fill="#FFFFFF" transform="translate(0,0)"/>
<path d="" fill="#FFFFFF" transform="translate(0,0)"/>
<path d="" fill="#FFFFFF" transform="translate(0,0)"/>
<path d="" fill="#FFFFFF" transform="translate(0,0)"/>
<path d="" fill="#FFFFFF" transform="translate(0,0)"/>
<path d="" fill="#FFFFFF" transform="translate(0,0)"/>
<path d="" fill="#FFFFFF" transform="translate(0,0)"/>
<path d="" fill="#FFFFFF" transform="translate(0,0)"/>
<path d="" fill="#FFFFFF" transform="translate(0,0)"/>
<path d="" fill="#FFFFFF" transform="translate(0,0)"/>
<path d="" fill="#FFFFFF" transform="translate(0,0)"/>
<path d="" fill="#FFFFFF" transform="translate(0,0)"/>
<path d="" fill="#FFFFFF" transform="translate(0,0)"/>
<path d="" fill="#FFFFFF" transform="translate(0,0)"/>
<path d="" fill="#FFFFFF" transform="translate(0,0)"/>
<path d="" fill="#FFFFFF" transform="translate(0,0)"/>
<path d="" fill="#FFFFFF" transform="translate(0,0)"/>
<path d="" fill="#FFFFFF" transform="translate(0,0)"/>
<path d="" fill="#FFFFFF" transform="translate(0,0)"/>
<path d="" fill="#FFFFFF" transform="translate(0,0)"/>
<path d="" fill="#FFFFFF" transform="translate(0,0)"/>
<path d="" fill="#FFFFFF" transform="translate(0,0)"/>
<path d="" fill="#FFFFFF" transform="translate(0,0)"/>
<path d="" fill="#FFFFFF" transform="translate(0,0)"/>
<path d="" fill="#FFFFFF" transform="translate(0,0)"/>
<path d="" fill="#FFFFFF" transform="translate(0,0)"/>
<path d="" fill="#FFFFFF" transform="translate(0,0)"/>
</svg>
